<svg width="100%" height="100%" viewBox="0 0 36 36" fill="none" xmlns="http://www.w3.org/2000/svg">
    <rect width="100%" height="100%" rx="18" fill="#1475E1"></rect>
    <path d="M10.2638 19.7113L18.0002 24.2803V27.0051L10.2638 19.7113Z" fill="white"></path>
    <path d="M10.2638 19.7113L18.0002 27.0051V30.6071L10.2638 19.7113Z" fill="white"></path>
    <path d="M10.2638 18.2354L18.0002 14.7127V5.39282L10.2638 18.2354Z" fill="white"></path>
    <path d="M10.2638 18.2355L18.0002 14.7128V22.8109L10.2638 18.2355Z" fill="white"></path>
    <path d="M25.7364 19.7113L18 24.3036V27.0051L25.7364 19.7113Z" fill="white"></path>
    <path d="M25.7364 19.7113L18 27.0051V30.6071L25.7364 19.7113Z" fill="white"></path>
    <path d="M25.7364 18.2354L18 14.7127V5.39282L25.7364 18.2354Z" fill="white"></path>
    <path d="M25.7364 18.2355L18 14.7128V22.8109L25.7364 18.2355Z" fill="white"></path>
</svg>