<svg width="100%" height="100%" viewBox="0 0 36 36" fill="none" xmlns="http://www.w3.org/2000/svg">
<path d="M35.9019 18.0003C35.9019 27.8891 27.8856 35.9055 17.997 35.9055C8.10816 35.9055 0.0917969 27.8891 0.0917969 18.0003C0.0917969 8.11158 8.10816 0.0952148 17.997 0.0952148C27.8855 0.0952148 35.9019 8.11158 35.9019 18.0003Z" fill="#8a45b2"></path>
<g clip-path="url(#clip0_1907_10548)">
<path fill-rule="evenodd" clip-rule="evenodd" d="M10.9691 10.0373C11.1 9.91157 11.2729 9.83826 11.4509 9.83826H28.0731C28.3768 9.83826 28.5287 10.2048 28.314 10.4196L25.0304 13.7031C24.9047 13.8288 24.7319 13.9022 24.5486 13.9022H7.92642C7.62268 13.9022 7.4708 13.5356 7.68552 13.3208L10.9691 10.0373ZM10.9691 22.2971C11.0948 22.1714 11.2676 22.0981 11.4509 22.0981H28.0731C28.3768 22.0981 28.5287 22.4647 28.314 22.6794L25.0304 25.963C24.9047 26.0887 24.7319 26.162 24.5486 26.162H7.92642C7.62268 26.162 7.4708 25.7954 7.68552 25.5807L10.9691 22.2971ZM24.5486 15.9289C24.7319 15.9289 24.9047 16.0022 25.0304 16.1279L28.314 19.4115C28.5287 19.6262 28.3768 19.9928 28.0731 19.9928H11.4509C11.2676 19.9928 11.0948 19.9195 10.9691 19.7938L7.68552 16.5102C7.4708 16.2955 7.62268 15.9289 7.92642 15.9289H24.5486Z" fill="white"></path>
</g>
<defs>
<clipPath id="clip0_1907_10548">
<rect width="20.8275" height="16.3237" fill="white" transform="translate(7.58594 9.83826)"></rect>
</clipPath>
</defs>
</svg>