<?xml version="1.0" encoding="UTF-8" standalone="no"?>
<!-- Created with Inkscape (http://www.inkscape.org/) -->

<svg
   width="1509mm"
   height="1017mm"
   viewBox="0 0 1509 1017"
   version="1.1"
   id="svg1"
   preserveAspectRation='none'
   inkscape:version="1.3.2 (091e20e, 2023-11-25, custom)"
   sodipodi:docname="orange_mountain.svg"
   xmlns:inkscape="http://www.inkscape.org/namespaces/inkscape"
   xmlns:sodipodi="http://sodipodi.sourceforge.net/DTD/sodipodi-0.dtd"
   xmlns:xlink="http://www.w3.org/1999/xlink"
   xmlns="http://www.w3.org/2000/svg"
   xmlns:svg="http://www.w3.org/2000/svg">
  <sodipodi:namedview
     id="namedview1"
     pagecolor="#ffffff"
     bordercolor="#000000"
     borderopacity="0.25"
     inkscape:showpageshadow="2"
     inkscape:pageopacity="0.0"
     inkscape:pagecheckerboard="0"
     inkscape:deskcolor="#d1d1d1"
     inkscape:document-units="mm"
     inkscape:zoom="0.086524095"
     inkscape:cx="3322.7738"
     inkscape:cy="2086.1241"
     inkscape:window-width="1920"
     inkscape:window-height="991"
     inkscape:window-x="-9"
     inkscape:window-y="-9"
     inkscape:window-maximized="1"
     inkscape:current-layer="layer1" />
  <defs
     id="defs1">
    <linearGradient
       id="linearGradient1">
      <stop
         style="stop-color:#ffff00;stop-opacity:1;"
         offset="0"
         id="stop1" />
      <stop
         style="stop-color:#f80000;stop-opacity:0.99686521;"
         offset="1"
         id="stop2" />
    </linearGradient>
    <linearGradient
       xlink:href="#linearGradient1"
       id="linearGradient2"
       x1="105.48474"
       y1="13.104715"
       x2="104.82613"
       y2="44.29641"
       gradientUnits="userSpaceOnUse"
       gradientTransform="matrix(1.0091697,0,0,0.95770244,-0.01039276,0.4365304)" />
  </defs>
  <g
     inkscape:label="Layer 1"
     inkscape:groupmode="layer"
     id="layer1">
    <g
       id="g2"
       transform="matrix(7.1732564,0,0,5.9507831,-7.3789248,-61.414837)">
      <rect
         style="fill:#f80000;stroke-width:1.002;stroke-linejoin:round"
         id="rect2"
         width="209.84941"
         height="151.36679"
         x="1.1467181"
         y="29.814672" />
      <path
         style="fill:url(#linearGradient2);stroke-width:0.985066;stroke-linejoin:round"
         d="m 1.1468403,28.990113 c -0.30177942,-1.170814 4.5688325,-3.546645 5.0146769,-4.392858 1.0167611,-1.929813 4.0880608,-2.415723 6.1719098,-3.294644 2.012872,-0.848986 4.729006,-2.578329 6.943399,-2.928572 0.980985,-0.15516 7.748964,-0.233269 8.486377,0 0.272761,0.08628 0.568183,0.173134 0.771489,0.366071 0.09092,0.08628 -0.121983,0.327484 0,0.366071 2.628511,0 -0.159781,-0.258852 1.928721,0.732143 0.771489,0.366072 0.578616,-0.183036 1.157233,0 0.719644,0.227647 0.960922,0.455958 1.542978,0.732144 0.906041,0.429916 3.170055,0 4.243189,0 0.992109,0 1.396983,0.07584 2.314465,0.366071 1.37586,0.435231 3.56723,0 5.014678,0 0.164147,0 1.867165,0.116831 1.928721,0 0.115007,-0.218282 -0.181841,-0.559575 0,-0.732143 0.181842,-0.172568 0.532719,0.09064 0.771489,0 0.43045,-0.163398 0.795216,-0.4573 1.157234,-0.732143 0.283988,-0.215605 0.569752,-0.444973 0.771489,-0.732143 0.07133,-0.10153 -0.106989,-0.298385 0,-0.366071 0.33832,-0.214045 0.793549,-0.193505 1.157232,-0.366073 0.894933,-0.424645 1.847446,-1.05965 2.700211,-1.464286 0.304622,-0.144544 0.831916,0.102908 1.157232,0 3.041382,-0.96209 7.14594,-0.366072 10.4151,-0.366072 1.223399,0 2.674732,0.224479 3.857443,0 0.398713,-0.07568 0.839723,-0.125018 1.157232,-0.366071 0.362016,-0.274843 0.443671,-0.787114 0.771489,-1.098215 0.209923,-0.199217 1.638367,-0.822667 1.928722,-1.098214 0.09093,-0.08628 -0.09092,-0.279788 0,-0.366072 0.33794,-0.320705 1.4878,-0.888997 1.928724,-1.098215 0.335179,-0.159043 7.843076,-0.203496 8.486375,0 0.385743,0.122024 0.869716,0.09322 1.157233,0.366071 0.236989,0.224904 0.254841,0.853066 0.771489,1.098216 0.397883,0.188796 0.884968,0.215382 1.157232,0.732142 0.0575,0.109142 -0.09092,0.279788 0,0.366072 0.203306,0.192936 0.568185,0.173135 0.771489,0.366072 0.09093,0.08629 -0.09092,0.279788 0,0.366071 1.104527,1.048198 1.610999,0.37465 2.700211,1.098215 1.053381,0.699761 2.016092,1.519563 3.085956,2.19643 0.601372,0.380469 1.897015,0 2.700211,0 1.963972,0 4.061753,-0.646053 5.78617,-1.464287 0.75063,-0.356178 0.97127,-1.468661 1.54297,-1.830358 0.21397,-0.135373 0.55751,0.135374 0.77149,0 0.23923,-0.151352 0.18245,-0.539207 0.38574,-0.732143 0.10438,-0.09905 1.32781,-0.996114 1.54298,-1.098214 0.7045,-0.334285 1.51693,-0.719782 2.31447,-1.098216 0.16264,-0.07717 0.25716,-0.244047 0.38575,-0.366071 0.38573,-0.244047 0.72678,-0.568745 1.15722,-0.732143 0.35817,-0.135956 0.83628,0.20306 1.15724,0 0.30261,-0.191447 0.4462,-0.577794 0.77149,-0.732143 0.21758,-0.103246 3.2035,-0.366072 3.47169,-0.366072 2.49516,0 2.05483,0.181275 3.85745,1.464287 0.80226,0.571012 0.65158,0.09233 1.15724,0.732142 0.27816,0.351971 0.44366,0.787115 0.77149,1.098216 0.16727,0.158745 1.7328,0.912296 1.92871,1.098214 0.20331,0.192936 0.22627,0.505116 0.38575,0.732143 0.24869,0.354013 2.55804,1.663361 3.08596,1.830358 0.88001,0.278378 2.55937,0 3.47169,0 0.59545,0 2.4637,0.295264 3.08596,0 0.16264,-0.07717 0.21323,-0.3115 0.38575,-0.366071 0.24396,-0.07717 0.54147,0.109141 0.77148,0 0.32529,-0.154349 0.46889,-0.540697 0.77149,-0.732144 0.10699,-0.06769 0.28288,0.07322 0.38574,0 0.76933,-0.547567 1.43576,-1.413407 2.31447,-1.830358 0.75437,-0.357947 1.24097,-0.03974 1.92873,-0.366071 0.115,-0.05457 0,-0.244047 0,-0.366071 0.25715,-0.122024 0.49872,-0.279788 0.77148,-0.366072 0.58218,-0.184164 1.71777,0 2.31447,0 0.17159,0 1.30359,-0.113588 1.54298,0 0.99664,0.472912 2.65306,2.473026 3.08595,3.294644 0.0575,0.109141 -0.0909,0.279788 0,0.366072 0.834,0.791462 6.45001,0.576067 8.10063,1.098214 0.5164,0.163352 4.1409,0.308769 4.62893,0 0.23924,-0.151351 0.18245,-0.539206 0.38575,-0.732143 0.0909,-0.08628 0.29483,0.08629 0.38574,0 0.32782,-0.311101 0.44367,-0.787114 0.77149,-1.098215 0.20331,-0.192936 0.56819,-0.173134 0.77149,-0.366071 0.0909,-0.08629 -0.0909,-0.279788 0,-0.366072 0.23356,-0.221644 1.87676,0 2.31447,0 0.88911,0 3.08281,-0.367563 3.85744,0 0.4629,0.219643 0.69434,0.878572 1.15724,1.098215 0.23001,0.109141 0.52752,-0.07717 0.77149,0 0.68024,0.215186 1.15625,0.853861 1.92871,1.098215 0.32532,0.102908 0.85262,-0.144543 1.15724,0 1.7654,0.837682 -1.63688,-0.151727 1.15723,0.732144 0.47269,0.149526 3.87376,0.35833 4.62893,0 0.3253,-0.154351 0.44621,-0.577795 0.77149,-0.732144 0.23001,-0.109142 0.54148,0.109142 0.77149,0 0.11501,-0.05457 -0.0909,-0.279788 0,-0.366072 0.74864,-0.710455 2.85247,-0.510566 3.4717,-1.098215 0.20331,-0.192936 0.18245,-0.539206 0.38574,-0.732143 0.58973,-0.559653 4.47036,-0.366071 5.40042,-0.366071 0.90545,0 7.25317,-0.07211 7.32915,0 0.20331,0.192937 0.25716,0.488096 0.38574,0.732143 0.38575,0 0.83628,-0.20306 1.15724,0 0.21397,0.135373 -0.11501,0.51386 0,0.732143 0.115,0.218283 0.54147,-0.109141 0.77149,0 1.67174,0.793242 -1.94744,-0.374951 1.15723,1.098215 0.46002,0.218283 1.11503,-0.270747 1.54297,0 1.08616,0.02273 0.0982,0.825361 0.38575,1.098215 0.0909,0.08628 0.32824,-0.109142 0.38574,0 0.40003,0.759241 -0.006,2.184959 0.38575,2.928572 0.80269,1.523503 -0.0266,-0.391344 0.77149,0.366072 0.0909,0.08628 -0.0909,0.279788 0,0.366072 0.29516,0.280108 0.79242,0.21283 1.15723,0.732142 0.15949,0.227028 0.18244,0.539207 0.38575,0.732144 0.16201,0.15375 1.03379,-0.175715 1.15723,0 0.22554,0.321066 0.1602,0.777148 0.38575,1.098214 0.14264,0.20306 0.54147,-0.10914 0.77148,0 0.16265,0.07717 0.22311,0.288898 0.38575,0.366072 0.23001,0.109142 0.58964,-0.172568 0.77148,0 0.0909,0.08628 -0.0909,0.279787 0,0.366072 0.19326,0.183401 1.2901,0.126081 1.54298,0.366072 0.18185,0.172567 -0.18184,0.559575 0,0.732143 0.34143,0.324012 0.63188,-0.264975 1.15724,0.732144 0.0509,0.09647 0.18192,9.538641 0,9.883931 -0.16265,0.308699 -0.60884,0.423446 -0.77149,0.732144 -0.11645,0.221023 0.17832,0.928993 0,1.098213 -0.0909,0.08629 -0.27074,-0.05457 -0.38575,0 -0.46289,0.219644 -0.69434,0.878575 -1.15723,1.098217 -0.4047,0.192031 -1.62084,-0.292184 -1.92872,0 -0.0909,0.08628 0.0909,0.279788 0,0.36607 -0.10524,0.09988 -5.85736,0 -6.55765,0 -0.87965,0 -2.73178,-0.35109 -3.47171,0 -0.5074,0.240764 -1.02131,0.567123 -1.54298,0.732144 -0.24396,0.07718 -0.54147,-0.109141 -0.77148,0 -0.11501,0.05457 0.0909,0.279788 0,0.366071 -0.81376,0.772255 -2.69647,1.610005 -3.85745,1.830357 -3.316,0.629381 -6.95617,0.366073 -10.41509,0.366073 -1.08383,0 -3.68786,0.446543 -4.62893,0 -0.11502,-0.05457 0.115,-0.311499 0,-0.366073 -1.75603,0 -0.0221,0.17257 -1.15724,-0.36607 -0.72006,-0.341666 -1.98015,0.341666 -2.70021,0 -0.98,-0.46501 0.39505,-0.43752 -1.15723,-0.732144 -1.31065,-0.24876 -1.47065,-0.148716 -2.70021,-0.732143 -0.92579,-0.439286 -2.54591,0.439285 -3.47171,0 -2.07283,-0.983563 -5.66426,-0.366071 -8.10062,-0.366071 -1.29807,0 -1.92565,-0.09079 -3.08596,-0.366071 -1.96815,-0.466943 -6.76312,0 -8.87212,0 -1.56056,0 -10.55002,-0.302055 -11.18659,0 -0.11501,0.05457 0.12199,0.327485 0,0.366071 -0.90484,0.286232 -2.2016,-0.335704 -3.08595,0 -1.19821,0.454839 -1.4946,1.727362 -3.4717,2.196428 -0.80521,0.191038 -4.13891,0.133558 -4.62894,0.366073 -1.17635,0.55818 0.70551,0.290208 -1.15723,0.732143 -1.97228,0.467924 -6.82789,0 -9.25786,0 -3.35889,0 -7.05442,0.39866 -10.4151,0 -0.77609,-0.09206 -1.547526,-0.220506 -2.314467,-0.366073 -0.563868,-0.107019 -0.973722,-0.654968 -1.542978,-0.732143 -1.018313,-0.138053 -2.0713,0.160486 -3.085954,0 -0.802156,-0.126874 -1.51231,-0.605267 -2.314468,-0.732141 -1.433622,-0.226753 -1.273635,0.175456 -2.70021,-0.366073 -0.533905,-0.202671 -0.979111,-0.625121 -1.542976,-0.732143 -0.756507,-0.143585 -1.598159,0.271912 -2.314467,0 -0.337671,-0.128179 -0.433819,-0.603963 -0.771489,-0.732142 -0.863106,-0.327635 -2.158161,0.176095 -3.085954,0 -0.398715,-0.07568 -0.758521,-0.290397 -1.157235,-0.366073 -2.270057,-0.430858 -5.720224,0 -8.100632,0 -1.355298,0 -7.694842,-0.372412 -8.872119,0 -2.794108,0.88387 0.608168,-0.10554 -1.157235,0.732144 -0.777638,0.36899 -3.118938,-0.350421 -4.628932,0.366071 -0.346515,0.164421 -9.394598,0.118156 -9.643611,0 -0.325286,-0.154349 -0.446199,-0.577793 -0.771487,-0.732142 -0.920055,-0.436566 -2.077279,0.191446 -3.085956,0 -0.563865,-0.107022 -0.990068,-0.582226 -1.542976,-0.732143 -1.420287,-0.385103 -9.156931,0 -11.186588,0 -3.085954,0 -6.17191,0 -9.257865,0 -1.234808,0 -2.648735,0.191176 -3.857444,0 -1.049722,-0.166033 -2.041285,-0.533867 -3.085955,-0.732143 -1.409311,-0.267489 -3.755872,0.597303 -5.014677,0 -0.115007,-0.05457 0.09092,-0.279788 0,-0.366074 -0.181841,-0.172567 -0.5414748,0.109144 -0.7714883,0 -0.4146628,-0.196756 -0.8294133,-0.421041 -1.1572331,-0.73214 -0.1818418,-0.17257 0.1150068,-0.513862 0,-0.732145 -0.4979476,-0.945106 -0.686637,0.241572 -1.1572332,-1.098216 -0.081322,-0.231522 0.1818417,-0.559573 0,-0.732141 -0.3233394,-0.30685 -1.5329748,-0.356581 -1.9287218,-0.732143 -0.090921,-0.08629 0.1150069,-0.311502 0,-0.366073 -0.2300134,-0.109141 -0.5275226,0.07717 -0.7714889,0 -0.3450203,-0.109141 -0.4462004,-0.577793 -0.7714886,-0.732144 -0.1150068,-0.05457 -0.2948236,0.08629 -0.3857443,0 -0.090921,-0.08628 0.057504,-0.256929 0,-0.366071 -0.1626443,-0.308699 -0.6088449,-0.423443 -0.7714888,-0.732143 -0.2057305,-0.390477 0.2057302,-1.07381 0,-1.464287 -0.8026879,-1.523502 0.026629,0.391344 -0.7714888,-0.36607 -0.090921,-0.08629 0.040661,-0.250311 0,-0.36607 C 1.6993627,30.197075 1.4040033,29.600233 1.1468403,28.990113 Z"
         id="path1" />
    </g>
  </g>
</svg>
